<svg width="25" height="56" viewBox="0 0 25 56" fill="none" xmlns="http://www.w3.org/2000/svg">
<g opacity="0.2">
<g opacity="0.4" clip-path="url(#clip0_7022_92775)">
<path opacity="0.4" d="M-202.904 27.9449C-202.904 28.5132 -202.777 29.087 -202.529 29.5173L-191.334 48.9049C-190.832 49.7711 -189.613 50.4773 -188.609 50.4773H8.7264C9.73054 50.4773 10.9498 49.7711 11.4519 48.9049L22.6464 29.5173C23.1485 28.6511 23.1485 27.2387 22.6464 26.3725L11.4519 6.98489C10.9498 6.11869 9.73054 5.41248 8.7264 5.41248H-188.614C-189.618 5.41248 -190.838 6.11869 -191.34 6.98489L-202.534 26.3725C-202.783 26.8083 -202.909 27.3766 -202.909 27.9449H-202.904Z" fill="url(#paint0_linear_7022_92775)"/>
<g filter="url(#filter0_d_7022_92775)">
<path d="M-188.609 5.41247C-189.613 5.41247 -190.833 6.11868 -191.335 6.98488L-202.529 26.3725C-202.777 26.8083 -202.904 27.3766 -202.904 27.9449C-202.904 28.5132 -202.777 29.087 -202.529 29.5173L-191.335 48.9049C-190.833 49.7711 -189.613 50.4773 -188.609 50.4773H8.72598C9.73012 50.4773 10.9494 49.7711 11.4515 48.9049L22.646 29.5173C23.148 28.6511 23.148 27.2387 22.646 26.3725L11.4515 6.98488C10.9494 6.11868 9.73012 5.41247 8.72598 5.41247H-188.615M-188.615 4.30902H8.72598C10.1274 4.30902 11.7053 5.22488 12.406 6.43316L23.6005 25.8207C24.3011 27.0345 24.3011 28.8607 23.6005 30.069L12.406 49.4566C11.7053 50.6704 10.1218 51.5807 8.72598 51.5807H-188.615C-190.016 51.5807 -191.594 50.6649 -192.295 49.4566L-203.489 30.069C-203.826 29.4842 -204.013 28.7283 -204.013 27.9449C-204.013 27.1614 -203.826 26.4056 -203.489 25.8207L-192.295 6.43316C-191.594 5.21937 -190.011 4.30902 -188.615 4.30902Z" fill="#142136"/>
</g>
<path opacity="0.6" d="M-188.608 51.029H8.72684C9.92408 51.029 11.331 50.218 11.9324 49.1807L23.1268 29.7931C23.7227 28.7559 23.7227 27.1338 23.1268 26.0966L11.9324 6.70899C11.331 5.67175 9.92408 4.86072 8.72684 4.86072H-188.614C-189.811 4.86072 -191.218 5.67175 -191.819 6.70899L-203.014 26.0966C-203.306 26.5986 -203.461 27.2552 -203.461 27.9449C-203.461 28.6345 -203.301 29.2911 -203.014 29.7931L-191.819 49.1807C-191.223 50.218 -189.811 51.029 -188.614 51.029H-188.608ZM8.72684 5.95865C9.52684 5.95865 10.5751 6.56554 10.9724 7.2552L22.1668 26.6428C22.5641 27.3324 22.5641 28.5462 22.1668 29.2359L10.9724 48.6235C10.5751 49.3131 9.52132 49.92 8.72684 49.92H-188.614C-189.414 49.92 -190.462 49.3131 -190.859 48.6235L-202.054 29.2359C-202.247 28.9049 -202.357 28.4304 -202.357 27.9393C-202.357 27.4483 -202.247 26.9738 -202.054 26.6428L-190.859 7.2552C-190.462 6.56554 -189.408 5.95865 -188.614 5.95865H8.72684Z" fill="url(#paint1_linear_7022_92775)"/>
<g filter="url(#filter1_d_7022_92775)">
<path d="M-188.609 50.6152H8.72616C9.77444 50.6152 11.0489 49.8759 11.5731 48.9711L22.7675 29.5835C23.2917 28.6786 23.2917 27.2055 22.7675 26.3007L11.5731 6.91312C11.0489 6.00829 9.77444 5.26898 8.72616 5.26898H-188.615C-189.663 5.26898 -190.937 6.00829 -191.461 6.91312L-202.656 26.3007C-202.91 26.7421 -203.048 27.3214 -203.048 27.9448C-203.048 28.5683 -202.91 29.1476 -202.656 29.589L-191.461 48.9766C-190.937 49.8814 -189.663 50.6207 -188.615 50.6207L-188.609 50.6152ZM8.72616 5.54484C9.68616 5.54484 10.8503 6.21795 11.3303 7.05105L22.5248 26.4386C23.0048 27.2662 23.0048 28.6179 22.5248 29.4455L11.3303 48.8331C10.8503 49.6607 9.68064 50.3393 8.72616 50.3393H-188.615C-189.575 50.3393 -190.744 49.6662 -191.219 48.8331L-202.413 29.4455C-202.645 29.0483 -202.772 28.5131 -202.772 27.9393C-202.772 27.3655 -202.645 26.8359 -202.413 26.4331L-191.219 7.04553C-190.739 6.21795 -189.569 5.53932 -188.615 5.53932H8.72616V5.54484Z" fill="url(#paint2_linear_7022_92775)" shape-rendering="crispEdges"/>
</g>
</g>
</g>
<defs>
<filter id="filter0_d_7022_92775" x="-208.013" y="2.30902" width="232.139" height="51.2717" filterUnits="userSpaceOnUse" color-interpolation-filters="sRGB">
<feFlood flood-opacity="0" result="BackgroundImageFix"/>
<feColorMatrix in="SourceAlpha" type="matrix" values="0 0 0 0 0 0 0 0 0 0 0 0 0 0 0 0 0 0 127 0" result="hardAlpha"/>
<feOffset dx="-2"/>
<feGaussianBlur stdDeviation="1"/>
<feComposite in2="hardAlpha" operator="out"/>
<feColorMatrix type="matrix" values="0 0 0 0 0.065 0 0 0 0 0.0743333 0 0 0 0 0.1 0 0 0 0.4 0"/>
<feBlend mode="normal" in2="BackgroundImageFix" result="effect1_dropShadow_7022_92775"/>
<feBlend mode="normal" in="SourceGraphic" in2="effect1_dropShadow_7022_92775" result="shape"/>
</filter>
<filter id="filter1_d_7022_92775" x="-204.048" y="4.26898" width="228.208" height="47.3517" filterUnits="userSpaceOnUse" color-interpolation-filters="sRGB">
<feFlood flood-opacity="0" result="BackgroundImageFix"/>
<feColorMatrix in="SourceAlpha" type="matrix" values="0 0 0 0 0 0 0 0 0 0 0 0 0 0 0 0 0 0 127 0" result="hardAlpha"/>
<feOffset/>
<feGaussianBlur stdDeviation="0.5"/>
<feComposite in2="hardAlpha" operator="out"/>
<feColorMatrix type="matrix" values="0 0 0 0 1 0 0 0 0 1 0 0 0 0 1 0 0 0 0.6 0"/>
<feBlend mode="normal" in2="BackgroundImageFix" result="effect1_dropShadow_7022_92775"/>
<feBlend mode="normal" in="SourceGraphic" in2="effect1_dropShadow_7022_92775" result="shape"/>
</filter>
<linearGradient id="paint0_linear_7022_92775" x1="23.8802" y1="33.2996" x2="7.71397" y2="28.552" gradientUnits="userSpaceOnUse">
<stop stop-color="#151924"/>
<stop offset="0.205" stop-color="#3A5164"/>
<stop offset="0.37" stop-color="#303C49"/>
<stop offset="0.73" stop-color="#1C2530" stop-opacity="0"/>
</linearGradient>
<linearGradient id="paint1_linear_7022_92775" x1="23.5737" y1="27.9449" x2="11.2162" y2="27.9449" gradientUnits="userSpaceOnUse">
<stop stop-color="white"/>
<stop offset="0.69" stop-color="white"/>
<stop offset="1" stop-color="white" stop-opacity="0"/>
</linearGradient>
<linearGradient id="paint2_linear_7022_92775" x1="21.983" y1="27.9448" x2="9.09255" y2="27.9448" gradientUnits="userSpaceOnUse">
<stop stop-color="white"/>
<stop offset="0.362764" stop-color="white"/>
<stop offset="1" stop-color="white" stop-opacity="0"/>
</linearGradient>
<clipPath id="clip0_7022_92775">
<rect width="24" height="56" fill="white" transform="translate(0.5)"/>
</clipPath>
</defs>
</svg>
