<?xml version="1.0" encoding="iso-8859-1"?>
<!-- Generator: Adobe Illustrator 19.0.0, SVG Export Plug-In . SVG Version: 6.00 Build 0)  -->
<svg version="1.1" id="Layer_1" xmlns="http://www.w3.org/2000/svg" xmlns:xlink="http://www.w3.org/1999/xlink" x="0px" y="0px"
	 viewBox="0 0 512 512" style="enable-background:new 0 0 512 512;" xml:space="preserve">
<circle style="fill:#324A5E;" cx="256" cy="256" r="256"/>
<path style="fill:#2B3B4E;" d="M237.709,104.395l19.525,19.604l0.203,98.057l-80.982-80.982c0.445-0.447-6.051,10.328-11.269,18.939
	l-0.264-0.264c0,0-19.825,13.834-20.975,13.834L226.364,256H96.827c0,0-29.865,17.834-29.865,18.982l86.792,86.214
	c-5.232,4.087-9.585,7.435-9.807,7.435l141.657,141.657c119.101-13.717,213.321-109.156,225.139-228.824L372.203,141.809
	c-0.11,0.333-1.476,6.404-4.61,11.447l-90.348-89.757c0.574,0.574-19.809,27.008-19.809,27.008v0.403L237.709,104.395z"/>
<path style="fill:#FFD15D;" d="M428.391,258.298v-6.896H314.499c-0.784-13.112-6.01-25.022-14.193-34.257l59.409-59.413
	l-4.875-4.875l-59.409,59.413c-9.235-8.185-21.145-13.41-34.259-14.195V84.183h-6.896v113.892
	c-13.114,0.784-25.026,6.01-34.261,14.195l-59.413-59.409l-4.875,4.875l59.413,59.411c-8.183,9.235-13.407,21.144-14.191,34.256
	H87.057v6.896h113.892c0.784,13.114,6.01,25.026,14.195,34.261l-59.413,59.414l4.877,4.875l59.413-59.414
	c9.235,8.183,21.144,13.407,34.256,14.191v113.892h6.896V311.625c13.112-0.784,25.022-6.01,34.257-14.193l59.414,59.413l4.875-4.875
	l-59.414-59.413c8.185-9.235,13.41-21.145,14.195-34.259H428.391z"/>
<path style="fill:#F9B54C;" d="M428.391,258.298v-6.896H314.499c-0.784-13.112-6.01-25.022-14.193-34.257l59.409-59.413
	l-4.875-4.875l-59.409,59.413c-9.235-8.185-21.145-13.41-34.259-14.195V84.183h-4.022v341.333h4.022V311.625
	c13.112-0.784,25.022-6.01,34.257-14.193l59.414,59.413l4.875-4.875l-59.414-59.413c8.185-9.235,13.41-21.145,14.195-34.259H428.391
	z"/>
<circle style="fill:#FD8469;" cx="257.724" cy="84.183" r="28.444"/>
<circle style="fill:#FC6F58;" cx="428.391" cy="254.845" r="28.444"/>
<circle style="fill:#FD8469;" cx="257.724" cy="425.512" r="28.444"/>
<g>
	<path style="fill:#FC6F58;" d="M257.724,55.739c-0.193,0-0.381,0.026-0.574,0.029V112.6c0.193,0.003,0.381,0.029,0.574,0.029
		c15.71,0,28.444-12.734,28.444-28.444S273.434,55.739,257.724,55.739z"/>
	<path style="fill:#FC6F58;" d="M257.724,397.072c-0.193,0-0.381,0.026-0.574,0.029v56.832c0.193,0.003,0.381,0.029,0.574,0.029
		c15.71,0,28.444-12.734,28.444-28.444C286.168,409.809,273.434,397.072,257.724,397.072z"/>
</g>
<circle style="fill:#FD8469;" cx="87.057" cy="254.845" r="28.444"/>
<g>
	<circle style="fill:#FC6F58;" cx="355.245" cy="157.324" r="22.987"/>
	<circle style="fill:#FC6F58;" cx="355.245" cy="352.366" r="22.987"/>
</g>
<g>
	<circle style="fill:#FD8469;" cx="160.203" cy="352.384" r="22.987"/>
	<circle style="fill:#FD8469;" cx="160.203" cy="157.324" r="22.987"/>
</g>
<g>
</g>
<g>
</g>
<g>
</g>
<g>
</g>
<g>
</g>
<g>
</g>
<g>
</g>
<g>
</g>
<g>
</g>
<g>
</g>
<g>
</g>
<g>
</g>
<g>
</g>
<g>
</g>
<g>
</g>
</svg>
