<svg height="512pt" viewBox="-11 0 512 512" width="512pt" xmlns="http://www.w3.org/2000/svg"><path d="m464.042969 376.835938c16.597656-33.039063 25.957031-70.34375 25.957031-109.835938 0-135.308594-109.691406-245-245-245s-245 109.691406-245 245c0 39.492188 9.359375 76.796875 25.957031 109.835938zm0 0" fill="#f948b4"/><path d="m465.035156 71.292969h-440.070312v303.542969c39.886718 81.238281 123.425781 137.164062 220.035156 137.164062s180.148438-55.925781 220.035156-137.164062zm0 0" fill="#3d4ec6"/><path d="m24.964844 71.292969v303.542969c15.949218 32.484374 38.882812 60.914062 66.835937 83.347656v-386.890625zm0 0" fill="#3342ae"/><path d="m24.964844 47.027344h440.070312v26.265625h-440.070312zm0 0" fill="#d5f1fe"/><path d="m141.921875 73.292969h-116.957031v-26.265625h92.210937c13.667969 0 24.746094 11.757812 24.746094 26.265625zm0 0" fill="#11dfef"/><path d="m24.964844 47.027344h66.835937v26.265625h-66.835937zm0 0" fill="#0ac6e5"/><path d="m463.691406 0c-8.492187 0-425.023437 0-437.382812 0-.742188 0-1.34375.601562-1.34375 1.34375v47.207031h440.070312v-47.207031c0-.742188-.601562-1.34375-1.34375-1.34375zm0 0" fill="#615df9"/><path d="m99.03125 0c-41.113281 0-69.625 0-72.722656 0-.742188 0-1.34375.601562-1.34375 1.34375v47.207031h66.835937v-37.550781c0-4.90625 2.988281-9.144531 7.230469-11zm0 0" fill="#3342ae"/><path d="m61.300781 33.808594c-5.507812 0-10-4.488282-10-10 0-4.769532 3.351563-8.859375 8.050781-9.8125 6.117188-1.230469 11.949219 3.472656 11.949219 9.8125 0 5.554687-4.542969 10-10 10zm0 0" fill="#f948b4"/><path d="m91.800781 33.808594c-5.429687 0-10-4.421875-10-10 0-6.324219 5.816407-11.046875 11.949219-9.8125 4.84375.984375 8.050781 5.214844 8.050781 9.8125 0 5.507812-4.488281 10-10 10zm0 0" fill="#fecd0a"/><path d="m122.300781 33.808594c-5.429687 0-10-4.421875-10-10 0-6.355469 5.84375-11.042969 11.949219-9.8125 4.84375.984375 8.050781 5.21875 8.050781 9.8125 0 5.507812-4.488281 10-10 10zm0 0" fill="#39df74"/><path d="m436.140625 31.773438h-52.667969c-4.144531 0-7.5-3.359376-7.5-7.5 0-4.140626 3.355469-7.5 7.5-7.5h52.667969c4.140625 0 7.5 3.359374 7.5 7.5 0 4.140624-3.359375 7.5-7.5 7.5zm0 0" fill="#aeaeff"/><path d="m345.792969 31.773438h-183.847657c-4.140624 0-7.5-3.359376-7.5-7.5 0-4.140626 3.359376-7.5 7.5-7.5h183.847657c4.140625 0 7.5 3.359374 7.5 7.5 0 4.140624-3.355469 7.5-7.5 7.5zm0 0" fill="#aeaeff"/><path d="m309.230469 24.273438c0-4.140626 3.359375-7.5 7.5-7.5h-154.785157c-4.140624 0-7.5 3.359374-7.5 7.5 0 4.144531 3.359376 7.5 7.5 7.5h154.785157c-4.140625 0-7.5-3.355469-7.5-7.5zm0 0" fill="#8181fc"/><path d="m137.800781 345.21875c-5.523437 0-10-4.476562-10-10v-28.234375c0-5.519531 4.476563-10 10-10 5.519531 0 10 4.480469 10 10v28.234375c0 5.523438-4.480469 10-10 10zm0 0" fill="#8181fc"/><path d="m137.800781 376.953125c-7.457031 0-13.5-6.042969-13.5-13.5v-28.234375c0-7.453125 6.042969-13.5 13.5-13.5 7.453125 0 13.5 6.046875 13.5 13.5v28.234375c0 7.457031-6.046875 13.5-13.5 13.5zm0 0" fill="#f948b4"/><path d="m200.035156 333.960938c-5.523437 0-10-4.476563-10-10v-39.492188c0-5.519531 4.476563-10 10-10 5.523438 0 10 4.480469 10 10v39.492188c0 5.523437-4.476562 10-10 10zm0 0" fill="#8181fc"/><path d="m200.035156 376.953125c-7.457031 0-13.5-6.042969-13.5-13.5v-39.488281c0-7.457032 6.042969-13.5 13.5-13.5 7.457032 0 13.5 6.042968 13.5 13.5v39.488281c0 7.457031-6.042968 13.5-13.5 13.5zm0 0" fill="#fecd0a"/><path d="m262.273438 322.707031c-5.523438 0-10-4.476562-10-10v-50.75c0-5.523437 4.476562-10 10-10 5.523437 0 10 4.476563 10 10v50.75c0 5.519531-4.476563 10-10 10zm0 0" fill="#8181fc"/><path d="m262.273438 376.953125c-7.457032 0-13.5-6.042969-13.5-13.5v-50.746094c0-7.457031 6.042968-13.5 13.5-13.5 7.453124 0 13.5 6.042969 13.5 13.5v50.746094c0 7.457031-6.046876 13.5-13.5 13.5zm0 0" fill="#00c82f"/><path d="m324.507812 311.449219c-5.523437 0-10-4.480469-10-10v-62.007813c0-5.523437 4.476563-10 10-10 5.523438 0 10 4.476563 10 10v62.007813c0 5.519531-4.476562 10-10 10zm0 0" fill="#8181fc"/><path d="m324.507812 376.953125c-7.453124 0-13.5-6.042969-13.5-13.5v-62.003906c0-7.457031 6.046876-13.5 13.5-13.5 7.457032 0 13.5 6.042969 13.5 13.5v62.003906c0 7.457031-6.042968 13.5-13.5 13.5zm0 0" fill="#d5f1fe"/><path d="m386.746094 300.191406c-5.523438 0-10-4.476562-10-10v-73.265625c0-5.523437 4.476562-10 10-10 5.523437 0 10 4.476563 10 10v73.265625c0 5.523438-4.476563 10-10 10zm0 0" fill="#8181fc"/><path d="m386.746094 376.953125c-7.457032 0-13.5-6.042969-13.5-13.5v-73.261719c0-7.457031 6.042968-13.5 13.5-13.5 7.457031 0 13.5 6.042969 13.5 13.5v73.261719c0 7.457031-6.042969 13.5-13.5 13.5zm0 0" fill="#27a3ff"/><path d="m137.800781 347.117188c-7.1875 0-13.042969-5.617188-13.460937-12.699219-.015625.265625-.039063.53125-.039063.800781v28.234375c0 7.457031 6.042969 13.5 13.5 13.5 7.453125 0 13.5-6.042969 13.5-13.5v-28.234375c0-.269531-.027343-.535156-.042969-.800781-.414062 7.082031-6.273437 12.699219-13.457031 12.699219zm0 0" fill="#e00e8b"/><path d="m200.035156 347.117188c-7.457031 0-13.5-6.042969-13.5-13.5v29.835937c0 7.457031 6.042969 13.5 13.5 13.5 7.457032 0 13.5-6.042969 13.5-13.5v-29.835937c0 7.457031-6.042968 13.5-13.5 13.5zm0 0" fill="#fca60d"/><path d="m262.273438 347.117188c-7.457032 0-13.5-6.042969-13.5-13.5v29.835937c0 7.457031 6.042968 13.5 13.5 13.5 7.453124 0 13.5-6.042969 13.5-13.5v-29.835937c0 7.457031-6.046876 13.5-13.5 13.5zm0 0" fill="#02ad22"/><path d="m324.507812 347.117188c-7.453124 0-13.5-6.042969-13.5-13.5v29.835937c0 7.457031 6.046876 13.5 13.5 13.5 7.457032 0 13.5-6.042969 13.5-13.5v-29.835937c0 7.457031-6.042968 13.5-13.5 13.5zm0 0" fill="#11dfef"/><path d="m386.746094 347.117188c-7.457032 0-13.5-6.042969-13.5-13.5v29.835937c0 7.457031 6.042968 13.5 13.5 13.5 7.457031 0 13.5-6.042969 13.5-13.5v-29.835937c0 7.457031-6.042969 13.5-13.5 13.5zm0 0" fill="#0080f4"/><path d="m168.917969 189.464844h-31.117188c-5.523437 0-10-4.480469-10-10 0-5.523438 4.476563-10 10-10h31.117188c5.523437 0 10 4.476562 10 10 0 5.523437-4.476563 10-10 10zm0 0" fill="#615df9"/><g fill="#8181fc"><path d="m197.035156 219.296875h-62.234375c-4.144531 0-7.5-3.355469-7.5-7.5 0-4.140625 3.355469-7.5 7.5-7.5h62.234375c4.144532 0 7.5 3.359375 7.5 7.5 0 4.144531-3.355468 7.5-7.5 7.5zm0 0"/><path d="m137.800781 403.796875c-5.515625 0-10-4.46875-10-10 0-6.433594 5.921875-11.015625 11.949219-9.800781 4.882812.988281 8.050781 5.222656 8.050781 9.800781 0 5.507813-4.488281 10-10 10zm0 0"/><path d="m200.039062 403.796875c-5.449218 0-10-4.417969-10-10 0-6.441406 5.925782-11.015625 11.953126-9.800781 4.777343.96875 8.046874 5.128906 8.046874 9.800781 0 5.425781-4.417968 10-10 10zm0 0"/><path d="m262.269531 403.796875c-5.554687 0-10-4.546875-10-10 0-6.371094 5.878907-11.027344 11.960938-9.800781 4.765625.980468 8.039062 5.085937 8.039062 9.800781 0 5.398437-4.375 10-10 10zm0 0"/><path d="m324.511719 403.796875c-5.515625 0-10-4.46875-10-10 0-6.433594 5.921875-11.015625 11.949219-9.800781 4.796874.972656 8.050781 5.132812 8.050781 9.800781 0 5.402344-4.382813 10-10 10zm0 0"/><path d="m386.742188 403.796875c-5.617188 0-10-4.601563-10-10 0-6.355469 5.867187-11.027344 11.957031-9.800781 4.785156.96875 8.050781 5.125 8.050781 9.800781 0 5.464844-4.445312 10-10.007812 10zm0 0"/><path d="m339.625 104.945312h-183.507812c-3.28125 0-5.941407 2.660157-5.941407 5.941407v14.414062c0 3.285157 2.660157 5.941407 5.941407 5.941407h183.507812c3.28125 0 5.941406-2.65625 5.941406-5.941407v-14.414062c0-3.28125-2.660156-5.941407-5.941406-5.941407zm0 0"/></g><path d="m210.035156 125.300781v-14.414062c0-3.28125 2.660156-5.941407 5.941406-5.941407h-59.859374c-3.28125 0-5.941407 2.660157-5.941407 5.941407v14.414062c0 3.28125 2.660157 5.941407 5.941407 5.941407h59.859374c-3.28125 0-5.941406-2.660157-5.941406-5.941407zm0 0" fill="#615df9"/><path d="m404.691406 377.335938h-332.140625c-4.144531 0-7.5-3.359376-7.5-7.5 0-4.144532 3.355469-7.5 7.5-7.5h332.140625c4.140625 0 7.5 3.355468 7.5 7.5 0 4.140624-3.359375 7.5-7.5 7.5zm0 0" fill="#615df9"/><path d="m83.910156 389.335938c-4.140625 0-7.5-3.359376-7.5-7.5v-207.871094c0-4.144532 3.359375-7.5 7.5-7.5s7.5 3.355468 7.5 7.5v207.871094c0 4.140624-3.359375 7.5-7.5 7.5zm0 0" fill="#615df9"/></svg>