<svg height="512pt" viewBox="0 0 512 512" width="512pt" xmlns="http://www.w3.org/2000/svg"><path d="m512 256c0 141.386719-114.613281 256-256 256s-256-114.613281-256-256 114.613281-256 256-256 256 114.613281 256 256zm0 0" fill="#00efd1"/><path d="m510.699219 281.914062-188.914063-188.914062-22.804687-3.316406-42.980469-44.480469-20.328125 41.191406-45.457031 6.601563 32.789062 32.664062-7.660156 44.671875 15.074219 15h-33.285157v106.957031h-111.394531v74.953126h-18.242187v30.03125l102.457031 99.886718c26.894531 9.597656 55.855469 14.839844 86.046875 14.839844 132.636719 0 241.710938-100.871094 254.699219-230.085938zm0 0" fill="#00ceb4"/><path d="m85.738281 292.289062h117.734375v88.34375h-117.734375zm0 0" fill="#fff"/><path d="m308.527344 248.816406h117.734375v131.816406h-117.734375zm0 0" fill="#fff5cb"/><path d="m197.132812 185.332031h117.734376v195.300781h-117.734376zm0 0" fill="#ff328e"/><path d="m256 185.328125h58.871094v195.300781h-58.871094zm0 0" fill="#c50a5b"/><path d="m67.496094 367.242188h377.007812v30.03125h-377.007812zm0 0" fill="#9331b2"/><path d="m256 45.203125 20.328125 41.191406 45.457031 6.605469-32.894531 32.0625 7.765625 45.269531-40.65625-21.375-40.65625 21.375 7.765625-45.269531-32.894531-32.0625 45.457031-6.605469zm0 0" fill="#ffe047"/><path d="m288.894531 125.054688 7.765625 45.28125-40.660156-21.382813v-103.753906l20.328125 41.199219 45.453125 6.597656zm0 0" fill="#fec000"/><path d="m256 367.242188h188.503906v30.03125h-188.503906zm0 0" fill="#681f7b"/></svg>