<svg width="141" height="48" viewBox="0 0 141 48" fill="none" xmlns="http://www.w3.org/2000/svg">
<g id="Vector">
<path d="M29.6797 20.8416C28.2879 20.8416 27.402 21.7482 27.1274 22.95H32.0833C31.914 21.6222 30.9868 20.8416 29.6797 20.8416Z" fill="#F72717"/>
<path d="M16.435 21.3703C14.6633 21.3703 13.5461 22.5927 13.5461 24.3025C13.5461 26.0123 14.686 27.2554 16.435 27.2554C18.184 27.2554 19.3673 26.0536 19.3673 24.3025C19.3673 22.5514 18.1861 21.3703 16.435 21.3703Z" fill="#F72717"/>
<path d="M52.2001 18.564C49.5405 18.564 47.4672 19.6274 47.1307 22.3842C47.1059 22.3842 47.1472 22.3842 47.1224 22.3842C46.284 9.8829 36.4218 0 23.7078 0C13.6618 0 5.06122 6.1763 1.48471 14.9379H10.0027L9.56077 17.8062H2.87442V20.8437H8.92682L8.46221 23.6066H2.87442V25.3784C2.87442 26.4542 3.33904 26.9601 4.22491 26.9601H9.94072L9.4761 29.8284H3.14906C2.84139 29.8284 2.54816 29.7994 2.26939 29.7499C2.26939 29.7499 1.1729 29.6322 0.49559 28.7504C0.479071 28.7298 0.202366 28.4015 0.0660787 27.8625C0.0309744 27.7221 0.0289094 27.7118 0 27.6023C0.0454291 27.9596 0.121833 28.4386 0.154872 28.6162C0.346913 29.6157 0.592644 30.4644 0.613293 30.5242C3.45468 40.6074 12.716 48 23.7078 48C34.6996 48 44.4503 40.2667 47.0542 29.8284H43.8288V23.9659C43.8288 22.3842 43.2176 21.3723 41.6564 21.3723C40.0953 21.3723 39.4841 22.3842 39.4841 23.9659V29.8284H36.2566V23.1647C36.2566 19.9806 38.5755 18.5681 41.6564 18.5681C44.7374 18.5681 47.0563 19.9806 47.0563 23.1647V29.8284H50.3004V23.9659C50.3004 22.3842 50.7216 21.3723 52.2621 21.3723C52.7473 21.3723 53.3379 21.519 53.5486 21.6263L54.1598 18.7994C53.8005 18.7581 52.894 18.5681 52.1981 18.5681L52.2001 18.564ZM22.6154 23.6459C22.6154 27.6746 20.2325 30.0369 16.2884 30.0369C12.6396 30.0369 10.172 27.5899 10.172 24.3005C10.172 21.011 12.5137 18.564 16.0138 18.564C17.6162 18.564 18.7973 19.1959 19.3879 19.8298V14.9379H22.6154V23.6479V23.6459ZM30.7555 27.6106C31.7054 27.6106 32.583 27.3359 33.4069 26.956L33.1385 29.5083C32.2113 29.8882 31.0921 30.0348 29.975 30.0348C26.2642 30.0348 23.6479 27.8625 23.6479 24.1724C23.6479 20.9676 25.9896 18.5619 29.5744 18.5619C33.6237 18.5619 35.6474 21.1349 35.5627 25.0996H27.212C27.528 26.9126 29.2584 27.6085 30.7555 27.6085V27.6106Z" fill="#F72717"/>
<path d="M59.5184 18.564C55.9336 18.564 53.5919 20.9676 53.5919 24.1745C53.5919 27.8646 56.2062 30.0369 59.919 30.0369C61.0361 30.0369 62.1553 29.8903 63.0825 29.5103L63.3509 26.9581C62.5291 27.338 61.6494 27.6126 60.6995 27.6126C59.2024 27.6126 57.472 26.9168 57.156 25.1037H65.5088C65.5935 21.139 63.5677 18.5661 59.5184 18.5661V18.564ZM57.0714 22.95C57.346 21.7482 58.2319 20.8416 59.6237 20.8416C60.9308 20.8416 61.86 21.6222 62.0273 22.95H57.0714Z" fill="#F72717"/>
<path d="M75.082 19.8298C74.4914 19.1979 73.3102 18.564 71.7078 18.564C68.2077 18.564 65.866 20.8623 65.866 24.3005C65.866 27.7386 68.3337 30.0369 71.9825 30.0369C75.9265 30.0369 78.3095 27.6746 78.3095 23.6459V14.9359H75.082V19.8298ZM72.1291 27.2533C70.378 27.2533 69.2402 25.9875 69.2402 24.3005C69.2402 22.6134 70.3573 21.3682 72.1291 21.3682C73.9008 21.3682 75.0613 22.5494 75.0613 24.3005C75.0613 26.0515 73.8801 27.2533 72.1291 27.2533Z" fill="#F72717"/>
<path d="M85.027 13.4439H86.7367V17.7754H87.1215L90.6265 13.4439H92.5358L88.8027 17.9321H89.2302C90.5125 17.9321 90.9685 18.4735 91.5099 19.7986L92.1368 21.3517C92.5928 22.4773 93.2482 23.4319 93.3479 23.5032H91.3104C91.1679 23.3464 90.7547 22.6055 90.484 21.9216L89.9711 20.5965C89.5579 19.5422 89.5009 19.2145 88.361 19.2145H86.7367V23.5032H85.027V13.4439Z" fill="#0F172A"/>
<path d="M101.638 19.8699V23.5032H100.085V22.3063C99.4577 23.1185 98.4319 23.6172 97.2635 23.6172C95.1263 23.6172 93.4592 22.1211 93.4592 19.7986C93.4592 17.5189 95.1548 15.8946 97.5342 15.8946C100.042 15.8946 101.638 17.4619 101.638 19.8699ZM99.9707 19.7701C99.9707 18.3026 98.9875 17.2767 97.52 17.2767C96.0524 17.2767 95.0978 18.4023 95.0978 19.7701C95.0978 21.1807 96.0239 22.2493 97.52 22.2493C98.9875 22.2493 99.9707 21.2377 99.9707 19.7701Z" fill="#0F172A"/>
<path d="M110.819 13.4439V19.5137C110.819 22.0356 109.224 23.6314 106.716 23.6314C104.394 23.6314 102.712 22.0071 102.712 19.7559C102.712 17.4192 104.337 15.8946 106.559 15.8946C107.785 15.8946 108.725 16.4076 109.238 17.0915V13.4439H110.819ZM109.224 19.7559C109.224 18.2883 108.241 17.2767 106.773 17.2767C105.277 17.2767 104.351 18.3311 104.351 19.7559C104.351 21.138 105.305 22.2493 106.773 22.2493C108.241 22.2493 109.224 21.2235 109.224 19.7559Z" fill="#0F172A"/>
<path d="M117.825 21.9501L117.711 23.2894C117.213 23.5174 116.557 23.6314 115.845 23.6314C113.451 23.6314 111.798 22.0784 111.798 19.6989C111.798 17.4904 113.408 15.8946 115.688 15.8946C118.181 15.8946 119.521 17.6044 119.492 20.0978H113.494C113.636 21.6794 114.847 22.3633 116.144 22.3633C116.771 22.3633 117.312 22.2351 117.825 21.9501ZM115.717 17.1057C114.562 17.1057 113.75 17.8324 113.508 18.9295H117.783C117.626 17.7754 116.856 17.1057 115.717 17.1057ZM118.31 12.8028L116.429 14.9257H115.061L116.329 12.8028H118.31Z" fill="#0F172A"/>
<path d="M120.202 19.7701C120.202 17.3194 122.098 15.8804 124.292 15.8946C126.586 15.9089 128.352 17.3194 128.367 19.7701C128.381 22.2208 126.6 23.6314 124.292 23.6314C121.998 23.6314 120.202 22.2208 120.202 19.7701ZM121.855 19.7701C121.855 21.2947 122.895 22.2493 124.292 22.2493C125.688 22.2493 126.714 21.2947 126.7 19.7701C126.7 18.2456 125.674 17.2767 124.292 17.2767C122.967 17.2624 121.855 18.2313 121.855 19.7701Z" fill="#0F172A"/>
<path d="M129.064 23.0615L129.576 21.7791C130.26 22.1496 130.944 22.3776 131.685 22.3776C132.341 22.3776 132.854 22.1496 132.854 21.4657C132.854 20.8673 132.312 20.568 131.557 20.2261L130.944 19.9411C129.947 19.4852 129.064 19.0007 129.064 17.8609C129.064 16.4503 130.36 15.8946 131.799 15.8946C132.611 15.8946 133.523 16.0798 134.321 16.4645L133.794 17.7184C133.196 17.3337 132.469 17.1342 131.87 17.1342C131.272 17.1342 130.716 17.2767 130.716 17.8466C130.716 18.3311 131.329 18.559 131.97 18.8583L132.583 19.1432C133.68 19.6562 134.506 20.2118 134.506 21.4514C134.506 22.9475 133.21 23.6314 131.699 23.6314C130.816 23.6314 129.933 23.4604 129.064 23.0615Z" fill="#0F172A"/>
<path d="M85.027 34.8605V24.8012H86.7367V34.8605H85.027Z" fill="#0F172A"/>
<path d="M93.6156 34.8605V30.5575C93.6156 29.3464 93.0172 28.634 91.8204 28.634C90.6378 28.634 90.0393 29.3464 90.0393 30.5575V34.8605H88.4578V30.301C88.4578 28.2635 89.8256 27.2661 91.8204 27.2661C93.8294 27.2661 95.1972 28.2635 95.1972 30.301V34.8605H93.6156Z" fill="#0F172A"/>
<path d="M101.939 33.2504L101.811 34.661C101.355 34.8747 100.757 34.9887 100.158 34.9887C97.8501 34.9887 96.3256 33.4641 96.3256 31.1132C96.3256 28.805 97.8644 27.2519 100.201 27.2519C100.999 27.2519 101.669 27.4229 102.324 27.7506L101.783 29.0044C101.412 28.7765 100.914 28.5912 100.372 28.5912C98.99 28.5912 97.9784 29.5601 97.9784 31.1132C97.9784 32.5522 98.8333 33.6779 100.472 33.6494C101.084 33.6351 101.569 33.4641 101.939 33.2504Z" fill="#0F172A"/>
<path d="M108.809 33.3074L108.695 34.6467C108.196 34.8747 107.541 34.9887 106.828 34.9887C104.435 34.9887 102.782 33.4356 102.782 31.0562C102.782 28.8477 104.392 27.2519 106.672 27.2519C109.165 27.2519 110.504 28.9617 110.476 31.4551H104.477C104.62 33.0367 105.831 33.7206 107.128 33.7206C107.754 33.7206 108.296 33.5924 108.809 33.3074ZM106.7 28.463C105.546 28.463 104.734 29.1897 104.492 30.2868H108.766C108.609 29.1327 107.84 28.463 106.7 28.463Z" fill="#0F172A"/>
<path d="M116.672 34.8605V30.5575C116.672 29.3464 116.073 28.634 114.876 28.634C113.694 28.634 113.095 29.3464 113.095 30.5575V34.8605H111.514V30.301C111.514 28.2635 112.882 27.2661 114.876 27.2661C116.885 27.2661 118.253 28.2635 118.253 30.301V34.8605H116.672Z" fill="#0F172A"/>
<path d="M119.667 31.0419V25.4424L121.262 24.8155V27.3516H122.801L122.559 28.6197H121.262V31.0704C121.262 32.9369 122.274 34.2193 122.73 34.8605H120.963C120.593 34.2905 119.667 33.0937 119.667 31.0419Z" fill="#0F172A"/>
<path d="M123.704 27.3516H125.3V34.8605H123.704V27.3516ZM123.704 24.8012H125.3V26.169H123.704V24.8012Z" fill="#0F172A"/>
<path d="M128.572 34.8605C125.922 27.4514 125.908 27.3801 125.894 27.3516H127.603L129.456 33.2362L131.308 27.3516H132.875L130.197 34.8605H128.572Z" fill="#0F172A"/>
<path d="M139.114 33.3074L139 34.6467C138.501 34.8747 137.846 34.9887 137.134 34.9887C134.74 34.9887 133.087 33.4356 133.087 31.0562C133.087 28.8477 134.697 27.2519 136.977 27.2519C139.47 27.2519 140.81 28.9617 140.781 31.4551H134.783C134.925 33.0367 136.136 33.7206 137.433 33.7206C138.06 33.7206 138.601 33.5924 139.114 33.3074ZM137.005 28.463C135.851 28.463 135.039 29.1897 134.797 30.2868H139.071C138.915 29.1327 138.145 28.463 137.005 28.463Z" fill="#0F172A"/>
</g>
</svg>
