<svg width="18" height="36" viewBox="0 0 18 36" fill="none" xmlns="http://www.w3.org/2000/svg">
<path d="M5.12758 17.5445H1.26306L9.11194 1.69727L9.07108 9.16355L5.12758 17.5445Z" fill="url(#paint0_linear_7019_2729)"/>
<path d="M9.06502 9.16355L9.02417 1.69727L16.873 17.5445H13.0085L9.06502 9.16355Z" fill="url(#paint1_linear_7019_2729)"/>
<path d="M9.07108 25.9255L9.11194 33.3942L1.26306 17.5446H5.12758L9.07108 25.9255Z" fill="url(#paint2_linear_7019_2729)"/>
<path d="M13.0085 17.5446H16.873L9.02417 33.3942L9.06502 25.9255L13.0085 17.5446Z" fill="url(#paint3_linear_7019_2729)"/>
<path style="mix-blend-mode:multiply" d="M8.99392 25.5049L4.99323 17.3465L8.99392 9.18567L12.9946 17.3465L8.99392 25.5049Z" fill="url(#paint4_linear_7019_2729)"/>
<path d="M9.15039 33.6972L1.30151 17.8524L9.15039 2.01013L16.9993 17.8524L9.15039 33.6972Z" stroke="url(#paint5_linear_7019_2729)" stroke-width="1.73" stroke-miterlimit="10"/>
<path d="M8.84753 33.6289L0.998657 17.7841L8.84753 1.94177L16.6964 17.7841L8.84753 33.6289Z" stroke="url(#paint6_linear_7019_2729)" stroke-width="1.73" stroke-miterlimit="10"/>
<path d="M9.04944 33.6289L1.20056 17.7841L9.04944 1.94177L16.8983 17.7841L9.04944 33.6289Z" stroke="url(#paint7_linear_7019_2729)" stroke-width="1.73" stroke-miterlimit="10"/>
<defs>
<linearGradient id="paint0_linear_7019_2729" x1="7.62768" y1="20.105" x2="3.95464" y2="0.540815" gradientUnits="userSpaceOnUse">
<stop stop-color="#C3D5DE"/>
<stop offset="0.29" stop-color="#3A5164"/>
<stop offset="0.56" stop-color="#151924"/>
<stop offset="0.82" stop-color="#3A5164"/>
<stop offset="1" stop-color="#C3D5DE"/>
</linearGradient>
<linearGradient id="paint1_linear_7019_2729" x1="8.71098" y1="8.84807" x2="32.5954" y2="18.7631" gradientUnits="userSpaceOnUse">
<stop stop-color="#C3D5DE"/>
<stop offset="0.29" stop-color="#3A5164"/>
<stop offset="0.56" stop-color="#151924"/>
<stop offset="0.82" stop-color="#3A5164"/>
<stop offset="1" stop-color="#C3D5DE"/>
</linearGradient>
<linearGradient id="paint2_linear_7019_2729" x1="13.4013" y1="33.4529" x2="-1.38278" y2="10.1531" gradientUnits="userSpaceOnUse">
<stop stop-color="#C3D5DE"/>
<stop offset="0.29" stop-color="#3A5164"/>
<stop offset="0.56" stop-color="#151924"/>
<stop offset="0.82" stop-color="#3A5164"/>
<stop offset="1" stop-color="#C3D5DE"/>
</linearGradient>
<linearGradient id="paint3_linear_7019_2729" x1="9.03234" y1="24.1182" x2="24.5302" y2="30.741" gradientUnits="userSpaceOnUse">
<stop stop-color="#C3D5DE"/>
<stop offset="0.29" stop-color="#3A5164"/>
<stop offset="0.56" stop-color="#151924"/>
<stop offset="0.82" stop-color="#3A5164"/>
<stop offset="1" stop-color="#C3D5DE"/>
</linearGradient>
<linearGradient id="paint4_linear_7019_2729" x1="11.2544" y1="18.2807" x2="5.19382" y2="15.1695" gradientUnits="userSpaceOnUse">
<stop stop-color="#C3D5DE"/>
<stop offset="0.7" stop-color="#3A5164"/>
<stop offset="1" stop-color="#151924"/>
</linearGradient>
<linearGradient id="paint5_linear_7019_2729" x1="9.15039" y1="34.2181" x2="9.15039" y2="1.48923" gradientUnits="userSpaceOnUse">
<stop stop-color="#C3D5DE"/>
<stop offset="0.29" stop-color="#3A5164"/>
<stop offset="0.56" stop-color="#151924"/>
<stop offset="0.82" stop-color="#3A5164"/>
<stop offset="1" stop-color="#C3D5DE"/>
</linearGradient>
<linearGradient id="paint6_linear_7019_2729" x1="16.9524" y1="17.7841" x2="0.739933" y2="17.7841" gradientUnits="userSpaceOnUse">
<stop stop-color="#C3D5DE"/>
<stop offset="0.29" stop-color="#3A5164"/>
<stop offset="0.56" stop-color="#151924"/>
<stop offset="0.82" stop-color="#3A5164"/>
<stop offset="1" stop-color="#C3D5DE"/>
</linearGradient>
<linearGradient id="paint7_linear_7019_2729" x1="1.07801" y1="5.63945" x2="14.6091" y2="31.2075" gradientUnits="userSpaceOnUse">
<stop stop-color="#C3D5DE"/>
<stop offset="0.29" stop-color="#3A5164"/>
<stop offset="0.56" stop-color="#151924"/>
<stop offset="0.82" stop-color="#3A5164"/>
<stop offset="1" stop-color="#C3D5DE"/>
</linearGradient>
</defs>
</svg>
