<svg width="183" height="34" viewBox="0 0 183 34" fill="none" xmlns="http://www.w3.org/2000/svg">
<rect x="0.5" y="0.5" width="182" height="33" rx="4.5" fill="url(#paint0_linear_7930_161741)"/>
<rect x="0.5" y="0.5" width="182" height="33" rx="4.5" stroke="url(#paint1_linear_7930_161741)"/>
<path d="M20.6144 22H16.1664C14.9664 22 14.4384 21.728 14.6624 20.304L15.9584 12.144C16.1824 10.72 16.7904 10.448 17.9904 10.448H22.4384C23.6384 10.448 24.1504 10.72 23.9264 12.144L23.6544 13.888H21.7344L21.9104 12.768C21.9744 12.304 21.8944 12.288 21.4944 12.288H18.3584C17.9584 12.288 17.8464 12.304 17.7824 12.768L16.6784 19.68C16.6144 20.144 16.7104 20.16 17.1104 20.16H20.2464C20.6944 20.16 20.7424 20.144 20.8064 19.696L20.9984 18.56H22.9184L22.6304 20.304C22.4064 21.728 21.8144 22 20.6144 22ZM30.8132 22H25.8852C24.6852 22 24.1572 21.728 24.3812 20.304L25.6772 12.144C25.9012 10.72 26.5092 10.448 27.7092 10.448H32.6372C33.8372 10.448 34.3492 10.72 34.1252 12.144L32.8292 20.304C32.6052 21.728 32.0132 22 30.8132 22ZM31.0052 19.696L32.1092 12.768C32.1732 12.304 32.0932 12.288 31.6932 12.288H28.0772C27.6772 12.288 27.5652 12.304 27.5012 12.768L26.3972 19.68C26.3332 20.144 26.4292 20.16 26.8292 20.16H30.4452C30.8932 20.16 30.9412 20.144 31.0052 19.696ZM41.5059 22H34.6259L36.4499 10.448H38.3699L36.8339 20.16H41.7939L41.5059 22ZM49.5841 22H42.7041L44.5281 10.448H46.4481L44.9121 20.16H49.8721L49.5841 22ZM57.9822 22H50.7822L52.6062 10.448H59.8062L59.5182 12.288H54.2382L53.7582 15.296H57.9982L57.7102 17.136H53.4702L52.9902 20.16H58.2702L57.9822 22ZM65.7863 22H61.3383C60.1383 22 59.6103 21.728 59.8343 20.304L61.1303 12.144C61.3543 10.72 61.9623 10.448 63.1623 10.448H67.6103C68.8103 10.448 69.3223 10.72 69.0983 12.144L68.8263 13.888H66.9063L67.0823 12.768C67.1463 12.304 67.0663 12.288 66.6663 12.288H63.5303C63.1303 12.288 63.0183 12.304 62.9543 12.768L61.8503 19.68C61.7863 20.144 61.8823 20.16 62.2823 20.16H65.4183C65.8663 20.16 65.9143 20.144 65.9783 19.696L66.1703 18.56H68.0903L67.8023 20.304C67.5783 21.728 66.9863 22 65.7863 22ZM73.3931 22H71.4731L73.0091 12.288H70.0171L70.3051 10.448H78.2091L77.9211 12.288H74.9291L73.3931 22ZM84.8103 22H77.6103L79.4343 10.448H86.6343L86.3463 12.288H81.0663L80.5863 15.296H84.8263L84.5383 17.136H80.2983L79.8183 20.16H85.0983L84.8103 22ZM94.1984 22H92.1984L90.4064 17.568H89.0464L88.3584 22H86.4384L88.2624 10.448H94.3104C95.5104 10.448 96.0224 10.72 95.7984 12.144L95.2064 15.872C94.9824 17.296 94.3744 17.568 93.1744 17.568H92.4064L94.1984 22ZM93.3824 15.264L93.7824 12.768C93.8464 12.304 93.7664 12.288 93.3664 12.288H89.8944L89.3504 15.728H92.8224C93.2704 15.728 93.3184 15.712 93.3824 15.264ZM105.99 22H99.1103L100.934 10.448H102.854L101.318 20.16H106.278L105.99 22ZM115.14 22H113.22L113.844 18H109.716L109.092 22H107.172L108.724 12.144C108.948 10.72 109.556 10.448 110.756 10.448H115.204C116.404 10.448 116.916 10.72 116.692 12.144L115.14 22ZM114.132 16.16L114.676 12.768C114.74 12.304 114.66 12.288 114.26 12.288H111.124C110.724 12.288 110.612 12.304 110.548 12.768L110.004 16.16H114.132ZM122.171 22H120.251L122.075 10.448H128.123C129.323 10.448 129.835 10.72 129.611 12.144L129.019 15.872C128.795 17.296 128.187 17.568 126.987 17.568H122.859L122.171 22ZM127.195 15.264L127.595 12.768C127.659 12.304 127.579 12.288 127.179 12.288H123.707L123.163 15.728H126.635C127.083 15.728 127.131 15.712 127.195 15.264ZM131.655 22H129.735L131.559 10.448H133.479L131.655 22ZM140.935 22H133.735L135.559 10.448H142.759L142.471 12.288H137.191L136.711 15.296H140.951L140.663 17.136H136.423L135.943 20.16H141.223L140.935 22ZM150.323 22H148.323L146.531 17.568H145.171L144.483 22H142.563L144.387 10.448H150.435C151.635 10.448 152.147 10.72 151.923 12.144L151.331 15.872C151.107 17.296 150.499 17.568 149.299 17.568H148.531L150.323 22ZM149.507 15.264L149.907 12.768C149.971 12.304 149.891 12.288 149.491 12.288H146.019L145.475 15.728H148.947C149.395 15.728 149.443 15.712 149.507 15.264ZM159.948 22H157.948L156.156 17.568H154.796L154.108 22H152.188L154.012 10.448H160.06C161.26 10.448 161.772 10.72 161.548 12.144L160.956 15.872C160.732 17.296 160.124 17.568 158.924 17.568H158.156L159.948 22ZM159.132 15.264L159.532 12.768C159.596 12.304 159.516 12.288 159.116 12.288H155.644L155.1 15.728H158.572C159.02 15.728 159.068 15.712 159.132 15.264ZM169.013 22H161.813L163.637 10.448H170.837L170.549 12.288H165.269L164.789 15.296H169.029L168.741 17.136H164.501L164.021 20.16H169.301L169.013 22Z" fill="#11131A"/>
<defs>
<linearGradient id="paint0_linear_7930_161741" x1="91.5" y1="4.20864" x2="91.5" y2="37.6916" gradientUnits="userSpaceOnUse">
<stop stop-color="#FFFFAE"/>
<stop offset="0.21" stop-color="#FFE800"/>
<stop offset="0.61" stop-color="#FF7F00"/>
<stop offset="1" stop-color="#FF2900"/>
</linearGradient>
<linearGradient id="paint1_linear_7930_161741" x1="1" y1="17" x2="182" y2="17" gradientUnits="userSpaceOnUse">
<stop stop-color="#FF5F00"/>
<stop offset="0.335" stop-color="#FFCB00"/>
<stop offset="0.66" stop-color="#FFD322"/>
<stop offset="1" stop-color="#FFF8AB"/>
</linearGradient>
</defs>
</svg>
