<svg width="214" height="35" viewBox="0 0 214 35" fill="none" xmlns="http://www.w3.org/2000/svg">
<rect x="0.5" y="0.743164" width="213" height="33" rx="4.5" fill="url(#paint0_linear_6862_138630)"/>
<rect x="0.5" y="0.743164" width="213" height="33" rx="4.5" stroke="url(#paint1_linear_6862_138630)"/>
<path d="M19.0138 22.2432H16.3898L15.1738 10.6912H17.2538L18.1018 19.6992L21.8138 10.6912H23.8778L19.0138 22.2432ZM30.0085 22.2432H25.0805C23.8805 22.2432 23.3525 21.9712 23.5765 20.5472L24.8725 12.3872C25.0965 10.9632 25.7045 10.6912 26.9045 10.6912H31.8325C33.0325 10.6912 33.5445 10.9632 33.3205 12.3872L32.0245 20.5472C31.8005 21.9712 31.2085 22.2432 30.0085 22.2432ZM30.2005 19.9392L31.3045 13.0112C31.3685 12.5472 31.2885 12.5312 30.8885 12.5312H27.2725C26.8725 12.5312 26.7605 12.5472 26.6965 13.0112L25.5925 19.9232C25.5285 20.3872 25.6245 20.4032 26.0245 20.4032H29.6405C30.0885 20.4032 30.1365 20.3872 30.2005 19.9392ZM35.7413 22.2432H33.8213L35.6453 10.6912H37.5653L35.7413 22.2432ZM45.5813 22.2432H43.5813L41.7893 17.8112H40.4293L39.7413 22.2432H37.8213L39.6453 10.6912H45.6933C46.8933 10.6912 47.4053 10.9632 47.1813 12.3872L46.5893 16.1152C46.3653 17.5392 45.7573 17.8112 44.5573 17.8112H43.7893L45.5813 22.2432ZM44.7653 15.5072L45.1653 13.0112C45.2292 12.5472 45.1493 12.5312 44.7493 12.5312H41.2773L40.7333 15.9712H44.2053C44.6533 15.9712 44.7013 15.9552 44.7653 15.5072ZM61.1811 22.2432H59.2611L60.6851 13.1552L57.1011 22.2432H54.7011L53.8531 13.1232L52.4131 22.2432H50.4931L52.3171 10.6912H55.4371L56.3171 19.5392L59.8851 10.6912H63.0051L61.1811 22.2432ZM70.4588 22.2432H63.2588L65.0828 10.6912H72.2828L71.9948 12.5312H66.7148L66.2348 15.5392H70.4748L70.1868 17.3792H65.9468L65.4668 20.4032H70.7468L70.4588 22.2432ZM78.1509 22.2432H73.7189C72.5189 22.2432 71.9909 21.9712 72.2149 20.5472L72.5029 18.8032H74.4229L74.2309 19.9232C74.1669 20.3872 74.2629 20.4032 74.6629 20.4032H77.7829C78.1829 20.4032 78.2789 20.3872 78.3429 19.9232L78.6789 17.8752C78.7429 17.4112 78.6469 17.3952 78.2469 17.3952H74.4549C73.2549 17.3952 72.7429 17.1232 72.9669 15.6992L73.4949 12.3872C73.7189 10.9632 74.3269 10.6912 75.5269 10.6912H79.9589C81.1589 10.6912 81.6709 10.9632 81.4469 12.3872L81.1749 14.1312H79.2549L79.4309 13.0112C79.4949 12.5472 79.4149 12.5312 79.0149 12.5312H75.8949C75.4949 12.5312 75.3829 12.5472 75.3189 13.0112L74.9829 15.0752C74.9189 15.5392 75.0149 15.5552 75.4149 15.5552H79.2069C80.4069 15.5552 80.9189 15.8272 80.6949 17.2512L80.1669 20.5472C79.9429 21.9712 79.3509 22.2432 78.1509 22.2432ZM91.3794 22.2432H84.8994L86.7234 10.6912H93.2034C94.4034 10.6912 94.9154 10.9632 94.6914 12.3872L93.3954 20.5472C93.1714 21.9712 92.5794 22.2432 91.3794 22.2432ZM91.5714 19.9392L92.6754 13.0112C92.7394 12.5472 92.6594 12.5312 92.2594 12.5312H88.3554L87.1074 20.4032H91.0114C91.4594 20.4032 91.5074 20.3872 91.5714 19.9392ZM102.381 22.2432H95.1806L97.0046 10.6912H104.205L103.917 12.5312H98.6366L98.1566 15.5392H102.397L102.109 17.3792H97.8686L97.3886 20.4032H102.669L102.381 22.2432ZM103.437 8.11516L100.221 9.82716L99.5966 8.70716L102.605 6.64316L103.437 8.11516ZM105.929 22.2432H104.009L105.833 10.6912H112.873L112.585 12.5312H107.465L106.985 15.5392H111.065L110.777 17.3792H106.697L105.929 22.2432ZM114.319 22.2432H112.399L114.223 10.6912H116.143L114.319 22.2432ZM122.463 22.2432H118.031C116.831 22.2432 116.303 21.9712 116.527 20.5472L116.815 18.8032H118.735L118.543 19.9232C118.479 20.3872 118.575 20.4032 118.975 20.4032H122.095C122.495 20.4032 122.591 20.3872 122.655 19.9232L122.991 17.8752C123.055 17.4112 122.959 17.3952 122.559 17.3952H118.767C117.567 17.3952 117.055 17.1232 117.279 15.6992L117.807 12.3872C118.031 10.9632 118.639 10.6912 119.839 10.6912H124.271C125.471 10.6912 125.983 10.9632 125.759 12.3872L125.487 14.1312H123.567L123.743 13.0112C123.807 12.5472 123.727 12.5312 123.327 12.5312H120.207C119.807 12.5312 119.695 12.5472 119.631 13.0112L119.295 15.0752C119.231 15.5392 119.327 15.5552 119.727 15.5552H123.519C124.719 15.5552 125.231 15.8272 125.007 17.2512L124.479 20.5472C124.255 21.9712 123.663 22.2432 122.463 22.2432ZM135.276 22.2432H129.212L131.036 10.6912H137.1C138.3 10.6912 138.812 10.9632 138.588 12.3872L138.172 15.0112C138.044 15.8752 137.756 16.3072 137.308 16.5312C137.692 16.7392 137.836 17.1872 137.692 18.0352L137.292 20.5472C137.068 21.9712 136.476 22.2432 135.276 22.2432ZM135.468 19.9392L135.804 17.8752C135.868 17.4112 135.772 17.3952 135.372 17.3952H131.884L131.42 20.4032H134.908C135.356 20.4032 135.404 20.3872 135.468 19.9392ZM136.236 15.0912L136.572 13.0112C136.636 12.5472 136.556 12.5312 136.156 12.5312H132.668L132.188 15.5552H135.676C136.124 15.5552 136.172 15.5392 136.236 15.0912ZM145.743 22.2432H140.815C139.615 22.2432 139.087 21.9712 139.311 20.5472L140.879 10.6912H142.799L141.327 19.9232C141.263 20.3872 141.359 20.4032 141.759 20.4032H145.375C145.823 20.4032 145.871 20.3872 145.935 19.9392L147.407 10.6912H149.327L147.759 20.5472C147.535 21.9712 146.943 22.2432 145.743 22.2432ZM155.635 22.2432H151.203C150.003 22.2432 149.475 21.9712 149.699 20.5472L149.987 18.8032H151.907L151.715 19.9232C151.651 20.3872 151.747 20.4032 152.147 20.4032H155.267C155.667 20.4032 155.763 20.3872 155.827 19.9232L156.163 17.8752C156.227 17.4112 156.131 17.3952 155.731 17.3952H151.939C150.739 17.3952 150.227 17.1232 150.451 15.6992L150.979 12.3872C151.203 10.9632 151.811 10.6912 153.011 10.6912H157.443C158.643 10.6912 159.155 10.9632 158.931 12.3872L158.659 14.1312H156.739L156.915 13.0112C156.979 12.5472 156.899 12.5312 156.499 12.5312H153.379C152.979 12.5312 152.867 12.5472 152.803 13.0112L152.467 15.0752C152.403 15.5392 152.499 15.5552 152.899 15.5552H156.691C157.891 15.5552 158.403 15.8272 158.179 17.2512L157.651 20.5472C157.427 21.9712 156.835 22.2432 155.635 22.2432ZM161.257 22.2432H159.337L161.161 10.6912H163.081L161.257 22.2432ZM171.513 22.2432H169.209L166.521 14.1952L165.257 22.2432H163.337L165.161 10.6912H167.417L170.121 18.8352L171.417 10.6912H173.337L171.513 22.2432ZM180.787 22.2432H173.587L175.411 10.6912H182.611L182.323 12.5312H177.043L176.563 15.5392H180.803L180.515 17.3792H176.275L175.795 20.4032H181.075L180.787 22.2432ZM188.479 22.2432H184.047C182.847 22.2432 182.319 21.9712 182.543 20.5472L182.831 18.8032H184.751L184.559 19.9232C184.495 20.3872 184.591 20.4032 184.991 20.4032H188.111C188.511 20.4032 188.607 20.3872 188.671 19.9232L189.007 17.8752C189.071 17.4112 188.975 17.3952 188.575 17.3952H184.783C183.583 17.3952 183.071 17.1232 183.295 15.6992L183.823 12.3872C184.047 10.9632 184.655 10.6912 185.855 10.6912H190.287C191.487 10.6912 191.999 10.9632 191.775 12.3872L191.503 14.1312H189.583L189.759 13.0112C189.823 12.5472 189.743 12.5312 189.343 12.5312H186.223C185.823 12.5312 185.711 12.5472 185.647 13.0112L185.311 15.0752C185.247 15.5392 185.343 15.5552 185.743 15.5552H189.535C190.735 15.5552 191.247 15.8272 191.023 17.2512L190.495 20.5472C190.271 21.9712 189.679 22.2432 188.479 22.2432ZM198.245 22.2432H193.813C192.613 22.2432 192.085 21.9712 192.309 20.5472L192.597 18.8032H194.517L194.325 19.9232C194.261 20.3872 194.357 20.4032 194.757 20.4032H197.877C198.277 20.4032 198.373 20.3872 198.437 19.9232L198.773 17.8752C198.837 17.4112 198.741 17.3952 198.341 17.3952H194.549C193.349 17.3952 192.837 17.1232 193.061 15.6992L193.589 12.3872C193.813 10.9632 194.421 10.6912 195.621 10.6912H200.053C201.253 10.6912 201.765 10.9632 201.541 12.3872L201.269 14.1312H199.349L199.525 13.0112C199.589 12.5472 199.509 12.5312 199.109 12.5312H195.989C195.589 12.5312 195.477 12.5472 195.413 13.0112L195.077 15.0752C195.013 15.5392 195.109 15.5552 195.509 15.5552H199.301C200.501 15.5552 201.013 15.8272 200.789 17.2512L200.261 20.5472C200.037 21.9712 199.445 22.2432 198.245 22.2432Z" fill="#11131A"/>
<defs>
<linearGradient id="paint0_linear_6862_138630" x1="107" y1="4.4518" x2="107" y2="37.9347" gradientUnits="userSpaceOnUse">
<stop stop-color="#FFFFAE"/>
<stop offset="0.21" stop-color="#FFE800"/>
<stop offset="0.61" stop-color="#FF7F00"/>
<stop offset="1" stop-color="#FF2900"/>
</linearGradient>
<linearGradient id="paint1_linear_6862_138630" x1="1" y1="17.2432" x2="213" y2="17.2432" gradientUnits="userSpaceOnUse">
<stop stop-color="#FF5F00"/>
<stop offset="0.335" stop-color="#FFCB00"/>
<stop offset="0.66" stop-color="#FFD322"/>
<stop offset="1" stop-color="#FFF8AB"/>
</linearGradient>
</defs>
</svg>
