<svg width="238" height="35" viewBox="0 0 238 35" fill="none" xmlns="http://www.w3.org/2000/svg">
<rect x="1" y="0.986328" width="236" height="33" rx="4.5" fill="url(#paint0_linear_6862_138637)"/>
<rect x="1" y="0.986328" width="236" height="33" rx="4.5" stroke="url(#paint1_linear_6862_138637)"/>
<path d="M19.7091 22.4863H17.0851L15.8691 10.9343H17.9491L18.7971 19.9423L22.5091 10.9343H24.5731L19.7091 22.4863ZM30.7038 22.4863H25.7758C24.5758 22.4863 24.0478 22.2143 24.2718 20.7903L25.5678 12.6303C25.7918 11.2063 26.3998 10.9343 27.5998 10.9343H32.5278C33.7278 10.9343 34.2398 11.2063 34.0158 12.6303L32.7198 20.7903C32.4958 22.2143 31.9038 22.4863 30.7038 22.4863ZM30.8958 20.1823L31.9998 13.2543C32.0638 12.7903 31.9838 12.7743 31.5838 12.7743H27.9678C27.5678 12.7743 27.4558 12.7903 27.3918 13.2543L26.2878 20.1663C26.2238 20.6303 26.3198 20.6463 26.7198 20.6463H30.3358C30.7838 20.6463 30.8318 20.6303 30.8958 20.1823ZM36.4366 22.4863H34.5166L36.3406 10.9343H38.2606L36.4366 22.4863ZM46.2766 22.4863H44.2766L42.4846 18.0543H41.1246L40.4366 22.4863H38.5166L40.3406 10.9343H46.3886C47.5886 10.9343 48.1006 11.2063 47.8766 12.6303L47.2846 16.3583C47.0606 17.7823 46.4526 18.0543 45.2526 18.0543H44.4846L46.2766 22.4863ZM45.4606 15.7503L45.8606 13.2543C45.9246 12.7903 45.8446 12.7743 45.4446 12.7743H41.9726L41.4286 16.2143H44.9006C45.3486 16.2143 45.3966 16.1983 45.4606 15.7503ZM61.8764 22.4863H59.9564L61.3804 13.3983L57.7964 22.4863H55.3964L54.5484 13.3663L53.1084 22.4863H51.1884L53.0124 10.9343H56.1324L57.0124 19.7823L60.5804 10.9343H63.7004L61.8764 22.4863ZM71.1541 22.4863H63.9541L65.7781 10.9343H72.9781L72.6901 12.7743H67.4101L66.9301 15.7823H71.1701L70.8821 17.6223H66.6421L66.1621 20.6463H71.4421L71.1541 22.4863ZM78.8462 22.4863H74.4142C73.2142 22.4863 72.6862 22.2143 72.9102 20.7903L73.1982 19.0463H75.1182L74.9262 20.1663C74.8622 20.6303 74.9582 20.6463 75.3582 20.6463H78.4782C78.8782 20.6463 78.9742 20.6303 79.0382 20.1663L79.3742 18.1183C79.4382 17.6543 79.3422 17.6383 78.9422 17.6383H75.1502C73.9502 17.6383 73.4382 17.3663 73.6622 15.9423L74.1902 12.6303C74.4142 11.2063 75.0222 10.9343 76.2222 10.9343H80.6542C81.8542 10.9343 82.3662 11.2063 82.1422 12.6303L81.8702 14.3743H79.9502L80.1262 13.2543C80.1902 12.7903 80.1102 12.7743 79.7102 12.7743H76.5902C76.1902 12.7743 76.0782 12.7903 76.0142 13.2543L75.6782 15.3183C75.6142 15.7823 75.7102 15.7983 76.1102 15.7983H79.9022C81.1022 15.7983 81.6142 16.0703 81.3902 17.4943L80.8622 20.7903C80.6382 22.2143 80.0462 22.4863 78.8462 22.4863ZM92.0747 22.4863H85.5947L87.4187 10.9343H93.8987C95.0987 10.9343 95.6107 11.2063 95.3867 12.6303L94.0907 20.7903C93.8667 22.2143 93.2747 22.4863 92.0747 22.4863ZM92.2667 20.1823L93.3707 13.2543C93.4347 12.7903 93.3547 12.7743 92.9547 12.7743H89.0507L87.8027 20.6463H91.7067C92.1547 20.6463 92.2027 20.6303 92.2667 20.1823ZM103.076 22.4863H95.8759L97.6999 10.9343H104.9L104.612 12.7743H99.3319L98.8519 15.7823H103.092L102.804 17.6223H98.5639L98.0839 20.6463H103.364L103.076 22.4863ZM104.132 8.35833L100.916 10.0703L100.292 8.95033L103.3 6.88633L104.132 8.35833ZM106.624 22.4863H104.704L106.528 10.9343H113.568L113.28 12.7743H108.16L107.68 15.7823H111.76L111.472 17.6223H107.392L106.624 22.4863ZM115.015 22.4863H113.095L114.919 10.9343H116.839L115.015 22.4863ZM123.159 22.4863H118.727C117.527 22.4863 116.999 22.2143 117.223 20.7903L117.511 19.0463H119.431L119.239 20.1663C119.175 20.6303 119.271 20.6463 119.671 20.6463H122.791C123.191 20.6463 123.287 20.6303 123.351 20.1663L123.687 18.1183C123.751 17.6543 123.655 17.6383 123.255 17.6383H119.463C118.263 17.6383 117.751 17.3663 117.975 15.9423L118.503 12.6303C118.727 11.2063 119.335 10.9343 120.535 10.9343H124.967C126.167 10.9343 126.679 11.2063 126.455 12.6303L126.183 14.3743H124.263L124.439 13.2543C124.503 12.7903 124.423 12.7743 124.023 12.7743H120.903C120.503 12.7743 120.391 12.7903 120.327 13.2543L119.991 15.3183C119.927 15.7823 120.023 15.7983 120.423 15.7983H124.215C125.415 15.7983 125.927 16.0703 125.703 17.4943L125.175 20.7903C124.951 22.2143 124.359 22.4863 123.159 22.4863ZM131.827 22.4863H129.907L131.731 10.9343H137.779C138.979 10.9343 139.491 11.2063 139.267 12.6303L138.675 16.3583C138.451 17.7823 137.843 18.0543 136.643 18.0543H132.515L131.827 22.4863ZM136.851 15.7503L137.251 13.2543C137.315 12.7903 137.235 12.7743 136.835 12.7743H133.363L132.819 16.2143H136.291C136.739 16.2143 136.787 16.1983 136.851 15.7503ZM146.592 22.4863H139.392L141.216 10.9343H148.416L148.128 12.7743H142.848L142.368 15.7823H146.608L146.32 17.6223H142.08L141.6 20.6463H146.88L146.592 22.4863ZM155.98 22.4863H153.98L152.188 18.0543H150.828L150.14 22.4863H148.22L150.044 10.9343H156.092C157.292 10.9343 157.804 11.2063 157.58 12.6303L156.988 16.3583C156.764 17.7823 156.156 18.0543 154.956 18.0543H154.188L155.98 22.4863ZM155.164 15.7503L155.564 13.2543C155.628 12.7903 155.548 12.7743 155.148 12.7743H151.676L151.132 16.2143H154.604C155.052 16.2143 155.1 16.1983 155.164 15.7503ZM163.909 22.4863H159.477C158.277 22.4863 157.749 22.2143 157.973 20.7903L158.261 19.0463H160.181L159.989 20.1663C159.925 20.6303 160.021 20.6463 160.421 20.6463H163.541C163.941 20.6463 164.037 20.6303 164.101 20.1663L164.437 18.1183C164.501 17.6543 164.405 17.6383 164.005 17.6383H160.213C159.013 17.6383 158.501 17.3663 158.725 15.9423L159.253 12.6303C159.477 11.2063 160.085 10.9343 161.285 10.9343H165.717C166.917 10.9343 167.429 11.2063 167.205 12.6303L166.933 14.3743H165.013L165.189 13.2543C165.253 12.7903 165.173 12.7743 164.773 12.7743H161.653C161.253 12.7743 161.141 12.7903 161.077 13.2543L160.741 15.3183C160.677 15.7823 160.773 15.7983 161.173 15.7983H164.965C166.165 15.7983 166.677 16.0703 166.453 17.4943L165.925 20.7903C165.701 22.2143 165.109 22.4863 163.909 22.4863ZM174.266 22.4863H169.338C168.138 22.4863 167.61 22.2143 167.834 20.7903L169.13 12.6303C169.354 11.2063 169.962 10.9343 171.162 10.9343H176.09C177.29 10.9343 177.802 11.2063 177.578 12.6303L176.282 20.7903C176.058 22.2143 175.466 22.4863 174.266 22.4863ZM174.458 20.1823L175.562 13.2543C175.626 12.7903 175.546 12.7743 175.146 12.7743H171.53C171.13 12.7743 171.018 12.7903 170.954 13.2543L169.85 20.1663C169.786 20.6303 169.882 20.6463 170.282 20.6463H173.898C174.346 20.6463 174.394 20.6303 174.458 20.1823ZM186.255 22.4863H183.951L181.263 14.4383L179.999 22.4863H178.079L179.903 10.9343H182.159L184.863 19.0783L186.159 10.9343H188.079L186.255 22.4863ZM196.505 22.4863H194.201L191.513 14.4383L190.249 22.4863H188.329L190.153 10.9343H192.409L195.113 19.0783L196.409 10.9343H198.329L196.505 22.4863ZM205.779 22.4863H198.579L200.403 10.9343H207.603L207.315 12.7743H202.035L201.555 15.7823H205.795L205.507 17.6223H201.267L200.787 20.6463H206.067L205.779 22.4863ZM214.287 22.4863H207.407L209.231 10.9343H211.151L209.615 20.6463H214.575L214.287 22.4863ZM221.549 22.4863H217.117C215.917 22.4863 215.389 22.2143 215.613 20.7903L215.901 19.0463H217.821L217.629 20.1663C217.565 20.6303 217.661 20.6463 218.061 20.6463H221.181C221.581 20.6463 221.677 20.6303 221.741 20.1663L222.077 18.1183C222.141 17.6543 222.045 17.6383 221.645 17.6383H217.853C216.653 17.6383 216.141 17.3663 216.365 15.9423L216.893 12.6303C217.117 11.2063 217.725 10.9343 218.925 10.9343H223.357C224.557 10.9343 225.069 11.2063 224.845 12.6303L224.573 14.3743H222.653L222.829 13.2543C222.893 12.7903 222.813 12.7743 222.413 12.7743H219.293C218.893 12.7743 218.781 12.7903 218.717 13.2543L218.381 15.3183C218.317 15.7823 218.413 15.7983 218.813 15.7983H222.605C223.805 15.7983 224.317 16.0703 224.093 17.4943L223.565 20.7903C223.341 22.2143 222.749 22.4863 221.549 22.4863Z" fill="#11131A"/>
<defs>
<linearGradient id="paint0_linear_6862_138637" x1="119" y1="4.69497" x2="119" y2="38.1779" gradientUnits="userSpaceOnUse">
<stop stop-color="#FFFFAE"/>
<stop offset="0.21" stop-color="#FFE800"/>
<stop offset="0.61" stop-color="#FF7F00"/>
<stop offset="1" stop-color="#FF2900"/>
</linearGradient>
<linearGradient id="paint1_linear_6862_138637" x1="1.5" y1="17.4863" x2="236.5" y2="17.4863" gradientUnits="userSpaceOnUse">
<stop stop-color="#FF5F00"/>
<stop offset="0.335" stop-color="#FFCB00"/>
<stop offset="0.66" stop-color="#FFD322"/>
<stop offset="1" stop-color="#FFF8AB"/>
</linearGradient>
</defs>
</svg>
