<svg width="327" height="34" viewBox="0 0 327 34" fill="none" xmlns="http://www.w3.org/2000/svg">
<rect x="47" y="0.5" width="233" height="33" rx="4.5" fill="url(#paint0_linear_8537_256163)"/>
<rect x="47" y="0.5" width="233" height="33" rx="4.5" stroke="url(#paint1_linear_8537_256163)"/>
<path d="M66.8254 22H62.3774C61.1774 22 60.6494 21.728 60.8734 20.304L62.1694 12.144C62.3934 10.72 63.0014 10.448 64.2014 10.448H68.6494C69.8494 10.448 70.3614 10.72 70.1374 12.144L69.8654 13.888H67.9454L68.1214 12.768C68.1854 12.304 68.1054 12.288 67.7054 12.288H64.5694C64.1694 12.288 64.0574 12.304 63.9934 12.768L62.8894 19.68C62.8254 20.144 62.9214 20.16 63.3214 20.16H66.4574C66.9054 20.16 66.9534 20.144 67.0174 19.696L67.2094 18.56H69.1294L68.8414 20.304C68.6174 21.728 68.0254 22 66.8254 22ZM78.8001 22H76.8801L77.6481 17.136H73.0561L72.2881 22H70.3681L72.1921 10.448H74.1121L73.3441 15.296H77.9361L78.7041 10.448H80.6241L78.8001 22ZM87.5398 22H82.6118C81.4118 22 80.8838 21.728 81.1078 20.304L82.4038 12.144C82.6278 10.72 83.2358 10.448 84.4358 10.448H89.3638C90.5638 10.448 91.0758 10.72 90.8518 12.144L89.5558 20.304C89.3318 21.728 88.7398 22 87.5398 22ZM87.7318 19.696L88.8358 12.768C88.8998 12.304 88.8198 12.288 88.4198 12.288H84.8038C84.4038 12.288 84.2918 12.304 84.2278 12.768L83.1238 19.68C83.0598 20.144 83.1558 20.16 83.5558 20.16H87.1718C87.6198 20.16 87.6678 20.144 87.7318 19.696ZM93.2725 22H91.3525L93.1765 10.448H95.0965L93.2725 22ZM101.417 22H96.9845C95.7845 22 95.2565 21.728 95.4805 20.304L95.7685 18.56H97.6885L97.4965 19.68C97.4325 20.144 97.5285 20.16 97.9285 20.16H101.049C101.449 20.16 101.545 20.144 101.609 19.68L101.945 17.632C102.009 17.168 101.913 17.152 101.513 17.152H97.7205C96.5205 17.152 96.0085 16.88 96.2325 15.456L96.7605 12.144C96.9845 10.72 97.5925 10.448 98.7925 10.448H103.225C104.425 10.448 104.937 10.72 104.713 12.144L104.441 13.888H102.521L102.697 12.768C102.76 12.304 102.681 12.288 102.281 12.288H99.1605C98.7605 12.288 98.6485 12.304 98.5845 12.768L98.2485 14.832C98.1845 15.296 98.2805 15.312 98.6805 15.312H102.473C103.673 15.312 104.185 15.584 103.961 17.008L103.433 20.304C103.209 21.728 102.617 22 101.417 22ZM107.038 22H105.118L106.942 10.448H108.862L107.038 22ZM116.878 22H114.878L113.086 17.568H111.726L111.038 22H109.118L110.942 10.448H116.99C118.19 10.448 118.702 10.72 118.478 12.144L117.886 15.872C117.662 17.296 117.054 17.568 115.854 17.568H115.086L116.878 22ZM116.062 15.264L116.462 12.768C116.526 12.304 116.446 12.288 116.046 12.288H112.574L112.03 15.728H115.502C115.95 15.728 115.998 15.712 116.062 15.264ZM126.295 22H123.671L122.455 10.448H124.535L125.383 19.456L129.095 10.448H131.159L126.295 22ZM137.29 22H132.362C131.162 22 130.634 21.728 130.858 20.304L132.154 12.144C132.378 10.72 132.986 10.448 134.186 10.448H139.114C140.314 10.448 140.826 10.72 140.602 12.144L139.306 20.304C139.082 21.728 138.49 22 137.29 22ZM137.482 19.696L138.586 12.768C138.65 12.304 138.57 12.288 138.17 12.288H134.554C134.154 12.288 134.042 12.304 133.978 12.768L132.874 19.68C132.81 20.144 132.906 20.16 133.306 20.16H136.922C137.37 20.16 137.418 20.144 137.482 19.696ZM145.167 22H143.247L144.783 12.288H141.791L142.079 10.448H149.983L149.695 12.288H146.703L145.167 22ZM157.144 22H155.144L153.352 17.568H151.992L151.304 22H149.384L151.208 10.448H157.256C158.456 10.448 158.968 10.72 158.744 12.144L158.152 15.872C157.928 17.296 157.32 17.568 156.12 17.568H155.352L157.144 22ZM156.328 15.264L156.728 12.768C156.792 12.304 156.712 12.288 156.312 12.288H152.84L152.296 15.728H155.768C156.216 15.728 156.264 15.712 156.328 15.264ZM166.209 22H159.009L160.833 10.448H168.033L167.745 12.288H162.465L161.985 15.296H166.225L165.937 17.136H161.697L161.217 20.16H166.497L166.209 22ZM172.804 22H170.884L172.708 10.448H178.756C179.956 10.448 180.468 10.72 180.244 12.144L179.652 15.872C179.428 17.296 178.82 17.568 177.62 17.568H173.492L172.804 22ZM177.828 15.264L178.228 12.768C178.292 12.304 178.212 12.288 177.812 12.288H174.34L173.796 15.728H177.268C177.716 15.728 177.764 15.712 177.828 15.264ZM187.568 22H180.368L182.192 10.448H189.392L189.104 12.288H183.824L183.344 15.296H187.584L187.296 17.136H183.056L182.576 20.16H187.856L187.568 22ZM196.956 22H194.956L193.164 17.568H191.804L191.116 22H189.196L191.02 10.448H197.068C198.268 10.448 198.78 10.72 198.556 12.144L197.964 15.872C197.74 17.296 197.132 17.568 195.932 17.568H195.164L196.956 22ZM196.14 15.264L196.54 12.768C196.604 12.304 196.524 12.288 196.124 12.288H192.652L192.108 15.728H195.58C196.028 15.728 196.076 15.712 196.14 15.264ZM204.885 22H200.453C199.253 22 198.725 21.728 198.949 20.304L199.237 18.56H201.157L200.965 19.68C200.901 20.144 200.997 20.16 201.397 20.16H204.517C204.917 20.16 205.013 20.144 205.077 19.68L205.413 17.632C205.477 17.168 205.381 17.152 204.981 17.152H201.189C199.989 17.152 199.477 16.88 199.701 15.456L200.229 12.144C200.453 10.72 201.061 10.448 202.261 10.448H206.693C207.893 10.448 208.405 10.72 208.181 12.144L207.909 13.888H205.989L206.165 12.768C206.229 12.304 206.149 12.288 205.749 12.288H202.629C202.229 12.288 202.117 12.304 202.053 12.768L201.717 14.832C201.653 15.296 201.749 15.312 202.149 15.312H205.941C207.141 15.312 207.653 15.584 207.429 17.008L206.901 20.304C206.677 21.728 206.085 22 204.885 22ZM215.243 22H210.315C209.115 22 208.587 21.728 208.811 20.304L210.107 12.144C210.331 10.72 210.939 10.448 212.139 10.448H217.067C218.267 10.448 218.779 10.72 218.555 12.144L217.259 20.304C217.035 21.728 216.443 22 215.243 22ZM215.435 19.696L216.539 12.768C216.603 12.304 216.523 12.288 216.123 12.288H212.507C212.107 12.288 211.995 12.304 211.931 12.768L210.827 19.68C210.763 20.144 210.859 20.16 211.259 20.16H214.875C215.323 20.16 215.371 20.144 215.435 19.696ZM227.232 22H224.928L222.24 13.952L220.976 22H219.056L220.88 10.448H223.136L225.84 18.592L227.136 10.448H229.056L227.232 22ZM237.482 22H235.178L232.49 13.952L231.226 22H229.306L231.13 10.448H233.386L236.09 18.592L237.386 10.448H239.306L237.482 22ZM247.508 22H245.588L246.212 18H242.084L241.46 22H239.54L241.092 12.144C241.316 10.72 241.924 10.448 243.124 10.448H247.572C248.772 10.448 249.284 10.72 249.06 12.144L247.508 22ZM246.5 16.16L247.044 12.768C247.108 12.304 247.028 12.288 246.628 12.288H243.492C243.092 12.288 242.98 12.304 242.916 12.768L242.372 16.16H246.5ZM255.907 22H251.299C250.099 22 249.571 21.728 249.795 20.304L251.091 12.144C251.315 10.72 251.923 10.448 253.123 10.448H257.731C258.931 10.448 259.443 10.72 259.219 12.144L258.947 13.888H257.027L257.203 12.768C257.267 12.304 257.187 12.288 256.787 12.288H253.491C253.091 12.288 252.979 12.304 252.915 12.768L251.811 19.68C251.747 20.144 251.843 20.16 252.243 20.16H255.539C255.987 20.16 256.035 20.144 256.099 19.696L256.355 18.064H254.259L254.563 16.224H258.579L257.923 20.304C257.699 21.728 257.107 22 255.907 22ZM266.803 22H259.603L261.427 10.448H268.627L268.339 12.288H263.059L262.579 15.296H266.819L266.531 17.136H262.291L261.811 20.16H267.091L266.803 22Z" fill="#11131A"/>
<defs>
<linearGradient id="paint0_linear_8537_256163" x1="163.5" y1="4.20864" x2="163.5" y2="37.6916" gradientUnits="userSpaceOnUse">
<stop stop-color="#FFFFAE"/>
<stop offset="0.21" stop-color="#FFE800"/>
<stop offset="0.61" stop-color="#FF7F00"/>
<stop offset="1" stop-color="#FF2900"/>
</linearGradient>
<linearGradient id="paint1_linear_8537_256163" x1="47.5" y1="17" x2="279.5" y2="17" gradientUnits="userSpaceOnUse">
<stop stop-color="#FF5F00"/>
<stop offset="0.335" stop-color="#FFCB00"/>
<stop offset="0.66" stop-color="#FFD322"/>
<stop offset="1" stop-color="#FFF8AB"/>
</linearGradient>
</defs>
</svg>
